<svg width="301" height="96" viewBox="0 0 301 96" fill="none" xmlns="http://www.w3.org/2000/svg">
<g filter="url(#filter0_d_95_2211)">
<mask id="path-1-outside-1_95_2211" maskUnits="userSpaceOnUse" x="2.56006" y="7.52783" width="297" height="74" fill="black">
<rect fill="white" x="2.56006" y="7.52783" width="297" height="74"/>
<path d="M18.8881 52.5278H36.2961C37.7041 52.5278 38.7281 52.6985 39.3681 53.0398C40.0081 53.3385 40.4347 53.8292 40.6481 54.5118C40.8614 55.1945 40.9681 56.1118 40.9681 57.2638C40.9681 58.3732 40.8614 59.2692 40.6481 59.9518C40.4347 60.6345 40.0721 61.1038 39.5601 61.3598C38.7494 61.7865 37.6401 61.9998 36.2321 61.9998H13.1921C10.2054 61.9998 8.45606 61.1892 7.94406 59.5678C7.68806 58.8852 7.56006 57.7972 7.56006 56.3038V20.7198C7.56006 19.7385 7.58139 19.0132 7.62406 18.5438C7.70939 18.0318 7.92273 17.4558 8.26406 16.8158C8.86139 15.6638 10.5254 15.0878 13.2561 15.0878C16.2427 15.0878 18.0134 15.8772 18.5681 17.4558C18.7814 18.1812 18.8881 19.2905 18.8881 20.7838V52.5278Z"/>
<path d="M44.1626 45.1678C44.1626 40.0478 45.9546 35.8238 49.5386 32.4958C53.1226 29.1678 57.2186 27.5038 61.8266 27.5038C66.4346 27.5038 70.5092 29.1678 74.0506 32.4958C77.5919 35.7812 79.3626 39.9838 79.3626 45.1038C79.3626 48.6452 78.4452 51.8025 76.6106 54.5758C74.7759 57.3065 72.5359 59.3332 69.8906 60.6558C67.2879 61.9358 64.5786 62.5758 61.7626 62.5758C58.9466 62.5758 56.2159 61.8932 53.5706 60.5278C50.9252 59.1198 48.6852 57.0718 46.8506 54.3838C45.0586 51.6532 44.1626 48.5812 44.1626 45.1678ZM57.5386 49.7758C58.9039 50.7998 60.2906 51.3118 61.6986 51.3118C63.1066 51.3118 64.5146 50.7785 65.9226 49.7118C67.3306 48.6452 68.0346 47.0665 68.0346 44.9758C68.0346 42.8852 67.3732 41.3278 66.0506 40.3038C64.7279 39.2798 63.2986 38.7678 61.7626 38.7678C60.2266 38.7678 58.7972 39.3012 57.4746 40.3678C56.1519 41.4345 55.4906 43.0132 55.4906 45.1038C55.4906 47.1518 56.1732 48.7092 57.5386 49.7758Z"/>
<path d="M105.386 31.8558C105.642 29.4665 107.327 28.2718 110.442 28.2718C112.106 28.2718 113.343 28.3998 114.154 28.6558C114.964 28.9118 115.519 29.3598 115.818 29.9998C116.159 30.6398 116.351 31.2158 116.394 31.7278C116.479 32.1972 116.522 32.9225 116.522 33.9038V56.3038C116.522 57.2852 116.479 58.0318 116.394 58.5438C116.351 59.0132 116.18 59.5678 115.882 60.2078C115.284 61.3172 113.812 61.8718 111.466 61.8718C109.162 61.8718 107.604 61.5945 106.794 61.0398C106.026 60.4425 105.578 59.5892 105.45 58.4798C103.871 60.7412 101.226 61.8718 97.5136 61.8718C93.8442 61.8718 90.4309 60.1865 87.2736 56.8158C84.1162 53.4452 82.5376 49.5412 82.5376 45.1038C82.5376 40.6238 84.1162 36.7198 87.2736 33.3918C90.4736 30.0212 93.9722 28.3358 97.7696 28.3358C99.2202 28.3358 100.543 28.5918 101.738 29.1038C102.932 29.6158 103.764 30.1065 104.234 30.5758C104.703 31.0025 105.087 31.4292 105.386 31.8558ZM93.7376 45.1678C93.7376 46.5758 94.2922 47.8558 95.4016 49.0078C96.5109 50.1172 97.8549 50.6718 99.4336 50.6718C101.012 50.6718 102.314 50.0958 103.338 48.9438C104.404 47.7918 104.938 46.5332 104.938 45.1678C104.938 43.7598 104.426 42.4585 103.402 41.2638C102.42 40.0692 101.076 39.4718 99.3696 39.4718C97.7056 39.4718 96.3402 40.0692 95.2736 41.2638C94.2496 42.4585 93.7376 43.7598 93.7376 45.1678Z"/>
<path d="M144.215 14.2558C144.556 13.6158 145.132 13.1678 145.943 12.9118C146.753 12.6558 147.82 12.5278 149.143 12.5278C150.508 12.5278 151.596 12.6558 152.407 12.9118C153.217 13.1678 153.772 13.6158 154.071 14.2558C154.412 14.8958 154.604 15.4718 154.647 15.9838C154.732 16.4532 154.775 17.1785 154.775 18.1598V56.3678C154.775 57.3492 154.732 58.0958 154.647 58.6078C154.604 59.0772 154.412 59.6105 154.071 60.2078C153.431 61.3598 151.617 61.9358 148.631 61.9358C145.687 61.9358 144.044 60.8905 143.703 58.7998C141.911 60.8478 139.415 61.8718 136.215 61.8718C132.375 61.8718 128.876 60.2078 125.719 56.8798C122.561 53.5092 120.983 49.6052 120.983 45.1678C120.983 40.6878 122.561 36.7625 125.719 33.3918C128.919 30.0212 132.417 28.3358 136.215 28.3358C139.372 28.3358 141.825 29.4025 143.575 31.5358V18.0958C143.575 17.1145 143.596 16.3892 143.639 15.9198C143.724 15.4078 143.916 14.8532 144.215 14.2558ZM133.847 49.0078C134.956 50.1598 136.3 50.7358 137.879 50.7358C139.457 50.7358 140.759 50.1598 141.783 49.0078C142.849 47.8558 143.383 46.5972 143.383 45.2318C143.383 43.8238 142.871 42.5225 141.847 41.3278C140.865 40.1332 139.521 39.5358 137.815 39.5358C136.108 39.5358 134.743 40.1332 133.719 41.3278C132.695 42.4798 132.183 43.7598 132.183 45.1678C132.183 46.5758 132.737 47.8558 133.847 49.0078Z"/>
<path d="M159.873 33.9038C159.873 32.9225 159.894 32.1972 159.937 31.7278C160.022 31.2158 160.214 30.6398 160.513 29.9998C161.11 28.8905 162.774 28.3358 165.505 28.3358C167.553 28.3358 169.003 28.6985 169.857 29.4238C170.582 30.0212 170.966 30.9385 171.009 32.1758C171.051 32.6025 171.073 33.2212 171.073 34.0318V56.4318C171.073 57.4132 171.03 58.1598 170.945 58.6718C170.902 59.1412 170.71 59.6958 170.369 60.3358C169.814 61.4452 168.171 61.9998 165.441 61.9998C162.753 61.9998 161.11 61.4238 160.513 60.2718C160.214 59.6318 160.022 59.0772 159.937 58.6078C159.894 58.1385 159.873 57.3918 159.873 56.3678V33.9038ZM170.369 22.0638C170.07 22.6612 169.515 23.0878 168.705 23.3438C167.894 23.5998 166.806 23.7278 165.441 23.7278C164.118 23.7278 163.051 23.5998 162.241 23.3438C161.43 23.0878 160.854 22.6398 160.513 21.9998C160.214 21.3598 160.022 20.8052 159.937 20.3358C159.894 19.8238 159.873 19.0772 159.873 18.0958C159.873 17.1145 159.894 16.3892 159.937 15.9198C160.022 15.4078 160.214 14.8532 160.513 14.2558C161.11 13.1038 162.774 12.5278 165.505 12.5278C168.193 12.5278 169.814 13.1038 170.369 14.2558C170.71 14.8958 170.902 15.4718 170.945 15.9838C171.03 16.4532 171.073 17.1785 171.073 18.1598C171.073 19.1412 171.03 19.8878 170.945 20.3998C170.902 20.8692 170.71 21.4238 170.369 22.0638Z"/>
<path d="M194.937 28.2718C199.204 28.2718 202.745 29.9145 205.561 33.1998C208.42 36.4425 209.849 40.4105 209.849 45.1038V56.3678C209.849 57.3492 209.806 58.0958 209.721 58.6078C209.678 59.0772 209.508 59.6105 209.209 60.2078C208.612 61.3598 206.948 61.9358 204.217 61.9358C201.188 61.9358 199.438 61.1465 198.969 59.5678C198.713 58.8425 198.585 57.7545 198.585 56.3038V45.0398C198.585 43.2905 198.073 41.9252 197.049 40.9438C196.068 39.9625 194.724 39.4718 193.017 39.4718C191.353 39.4718 189.988 39.9838 188.921 41.0078C187.897 42.0318 187.385 43.3758 187.385 45.0398V56.3678C187.385 57.3492 187.342 58.0958 187.257 58.6078C187.214 59.0772 187.022 59.6105 186.681 60.2078C186.126 61.3598 184.484 61.9358 181.753 61.9358C179.065 61.9358 177.422 61.3598 176.825 60.2078C176.526 59.5678 176.334 59.0132 176.249 58.5438C176.206 58.0318 176.185 57.2852 176.185 56.3038V33.6478C176.185 32.7092 176.206 32.0052 176.249 31.5358C176.334 31.0238 176.548 30.4692 176.889 29.8718C177.486 28.8052 179.129 28.2718 181.817 28.2718C184.42 28.2718 186.02 28.7625 186.617 29.7438C187.044 30.4692 187.257 31.3438 187.257 32.3678C187.428 32.0692 187.812 31.6425 188.409 31.0878C189.006 30.5332 189.582 30.0852 190.137 29.7438C191.588 28.7625 193.188 28.2718 194.937 28.2718Z"/>
<path d="M236.374 57.7758C234.752 59.9092 232.171 60.9758 228.63 60.9758C225.088 60.9758 221.76 59.3545 218.646 56.1118C215.574 52.8265 214.038 49.0078 214.038 44.6558C214.038 40.3038 215.595 36.4852 218.71 33.1998C221.824 29.9145 225.238 28.2718 228.95 28.2718C230.4 28.2718 231.723 28.5492 232.918 29.1038C234.112 29.6158 234.923 30.1065 235.35 30.5758C235.819 31.0025 236.182 31.4078 236.438 31.7918C236.566 30.5972 236.992 29.7012 237.718 29.1038C238.486 28.4638 239.702 28.1438 241.366 28.1438C243.03 28.1438 244.246 28.2718 245.014 28.5278C245.782 28.7838 246.315 29.2318 246.614 29.8718C246.955 30.4692 247.147 31.0025 247.19 31.4718C247.275 31.9412 247.318 32.6665 247.318 33.6478V60.1438C247.318 65.0505 245.611 68.9972 242.198 71.9838C238.784 75.0132 234.944 76.5278 230.678 76.5278C227.435 76.5278 224.342 75.7385 221.398 74.1598C218.454 72.5812 216.982 71.1518 216.982 69.8718C216.982 68.2078 217.622 66.7358 218.902 65.4558C219.712 64.5598 220.331 63.9412 220.758 63.5998C221.227 63.2585 221.76 63.0878 222.358 63.0878C222.955 63.0878 223.574 63.3438 224.214 63.8558C226.262 65.4345 228.48 66.2238 230.87 66.2238C232.491 66.2238 233.814 65.5838 234.838 64.3038C235.862 63.0238 236.374 61.4878 236.374 59.6958V57.7758ZM224.982 44.7198C224.982 46.0852 225.515 47.3225 226.582 48.4318C227.691 49.5412 229.014 50.0958 230.55 50.0958C232.128 50.0958 233.43 49.5412 234.454 48.4318C235.478 47.2798 235.99 46.0425 235.99 44.7198C235.99 43.3545 235.499 42.0958 234.518 40.9438C233.536 39.7492 232.214 39.1518 230.55 39.1518C228.886 39.1518 227.542 39.7278 226.518 40.8798C225.494 42.0318 224.982 43.3118 224.982 44.7198Z"/>
<path d="M262.355 51.4398C263.08 52.1652 263.443 53.6585 263.443 55.9198V56.1758C263.443 57.1998 263.4 57.9678 263.315 58.4798C263.272 58.9492 263.059 59.5252 262.675 60.2078C262.035 61.4452 260.414 62.0638 257.811 62.0638C255.251 62.0638 253.544 61.6585 252.691 60.8478C251.88 60.0372 251.475 58.5012 251.475 56.2398V55.9838C251.475 55.0025 251.496 54.2558 251.539 53.7438C251.624 53.2318 251.838 52.6558 252.179 52.0158C252.819 50.7358 254.419 50.0958 256.979 50.0958C259.582 50.0958 261.374 50.5438 262.355 51.4398Z"/>
<path d="M277.543 51.4398C278.268 52.1652 278.631 53.6585 278.631 55.9198V56.1758C278.631 57.1998 278.588 57.9678 278.503 58.4798C278.46 58.9492 278.247 59.5252 277.863 60.2078C277.223 61.4452 275.601 62.0638 272.999 62.0638C270.439 62.0638 268.732 61.6585 267.879 60.8478C267.068 60.0372 266.663 58.5012 266.663 56.2398V55.9838C266.663 55.0025 266.684 54.2558 266.727 53.7438C266.812 53.2318 267.025 52.6558 267.367 52.0158C268.007 50.7358 269.607 50.0958 272.167 50.0958C274.769 50.0958 276.561 50.5438 277.543 51.4398Z"/>
<path d="M292.73 51.4398C293.455 52.1652 293.818 53.6585 293.818 55.9198V56.1758C293.818 57.1998 293.775 57.9678 293.69 58.4798C293.647 58.9492 293.434 59.5252 293.05 60.2078C292.41 61.4452 290.789 62.0638 288.186 62.0638C285.626 62.0638 283.919 61.6585 283.066 60.8478C282.255 60.0372 281.85 58.5012 281.85 56.2398V55.9838C281.85 55.0025 281.871 54.2558 281.914 53.7438C281.999 53.2318 282.213 52.6558 282.554 52.0158C283.194 50.7358 284.794 50.0958 287.354 50.0958C289.957 50.0958 291.749 50.5438 292.73 51.4398Z"/>
</mask>
<path d="M18.8881 52.5278H36.2961C37.7041 52.5278 38.7281 52.6985 39.3681 53.0398C40.0081 53.3385 40.4347 53.8292 40.6481 54.5118C40.8614 55.1945 40.9681 56.1118 40.9681 57.2638C40.9681 58.3732 40.8614 59.2692 40.6481 59.9518C40.4347 60.6345 40.0721 61.1038 39.5601 61.3598C38.7494 61.7865 37.6401 61.9998 36.2321 61.9998H13.1921C10.2054 61.9998 8.45606 61.1892 7.94406 59.5678C7.68806 58.8852 7.56006 57.7972 7.56006 56.3038V20.7198C7.56006 19.7385 7.58139 19.0132 7.62406 18.5438C7.70939 18.0318 7.92273 17.4558 8.26406 16.8158C8.86139 15.6638 10.5254 15.0878 13.2561 15.0878C16.2427 15.0878 18.0134 15.8772 18.5681 17.4558C18.7814 18.1812 18.8881 19.2905 18.8881 20.7838V52.5278Z" fill="#FEFEFE"/>
<path d="M44.1626 45.1678C44.1626 40.0478 45.9546 35.8238 49.5386 32.4958C53.1226 29.1678 57.2186 27.5038 61.8266 27.5038C66.4346 27.5038 70.5092 29.1678 74.0506 32.4958C77.5919 35.7812 79.3626 39.9838 79.3626 45.1038C79.3626 48.6452 78.4452 51.8025 76.6106 54.5758C74.7759 57.3065 72.5359 59.3332 69.8906 60.6558C67.2879 61.9358 64.5786 62.5758 61.7626 62.5758C58.9466 62.5758 56.2159 61.8932 53.5706 60.5278C50.9252 59.1198 48.6852 57.0718 46.8506 54.3838C45.0586 51.6532 44.1626 48.5812 44.1626 45.1678ZM57.5386 49.7758C58.9039 50.7998 60.2906 51.3118 61.6986 51.3118C63.1066 51.3118 64.5146 50.7785 65.9226 49.7118C67.3306 48.6452 68.0346 47.0665 68.0346 44.9758C68.0346 42.8852 67.3732 41.3278 66.0506 40.3038C64.7279 39.2798 63.2986 38.7678 61.7626 38.7678C60.2266 38.7678 58.7972 39.3012 57.4746 40.3678C56.1519 41.4345 55.4906 43.0132 55.4906 45.1038C55.4906 47.1518 56.1732 48.7092 57.5386 49.7758Z" fill="#FEFEFE"/>
<path d="M105.386 31.8558C105.642 29.4665 107.327 28.2718 110.442 28.2718C112.106 28.2718 113.343 28.3998 114.154 28.6558C114.964 28.9118 115.519 29.3598 115.818 29.9998C116.159 30.6398 116.351 31.2158 116.394 31.7278C116.479 32.1972 116.522 32.9225 116.522 33.9038V56.3038C116.522 57.2852 116.479 58.0318 116.394 58.5438C116.351 59.0132 116.18 59.5678 115.882 60.2078C115.284 61.3172 113.812 61.8718 111.466 61.8718C109.162 61.8718 107.604 61.5945 106.794 61.0398C106.026 60.4425 105.578 59.5892 105.45 58.4798C103.871 60.7412 101.226 61.8718 97.5136 61.8718C93.8442 61.8718 90.4309 60.1865 87.2736 56.8158C84.1162 53.4452 82.5376 49.5412 82.5376 45.1038C82.5376 40.6238 84.1162 36.7198 87.2736 33.3918C90.4736 30.0212 93.9722 28.3358 97.7696 28.3358C99.2202 28.3358 100.543 28.5918 101.738 29.1038C102.932 29.6158 103.764 30.1065 104.234 30.5758C104.703 31.0025 105.087 31.4292 105.386 31.8558ZM93.7376 45.1678C93.7376 46.5758 94.2922 47.8558 95.4016 49.0078C96.5109 50.1172 97.8549 50.6718 99.4336 50.6718C101.012 50.6718 102.314 50.0958 103.338 48.9438C104.404 47.7918 104.938 46.5332 104.938 45.1678C104.938 43.7598 104.426 42.4585 103.402 41.2638C102.42 40.0692 101.076 39.4718 99.3696 39.4718C97.7056 39.4718 96.3402 40.0692 95.2736 41.2638C94.2496 42.4585 93.7376 43.7598 93.7376 45.1678Z" fill="#FEFEFE"/>
<path d="M144.215 14.2558C144.556 13.6158 145.132 13.1678 145.943 12.9118C146.753 12.6558 147.82 12.5278 149.143 12.5278C150.508 12.5278 151.596 12.6558 152.407 12.9118C153.217 13.1678 153.772 13.6158 154.071 14.2558C154.412 14.8958 154.604 15.4718 154.647 15.9838C154.732 16.4532 154.775 17.1785 154.775 18.1598V56.3678C154.775 57.3492 154.732 58.0958 154.647 58.6078C154.604 59.0772 154.412 59.6105 154.071 60.2078C153.431 61.3598 151.617 61.9358 148.631 61.9358C145.687 61.9358 144.044 60.8905 143.703 58.7998C141.911 60.8478 139.415 61.8718 136.215 61.8718C132.375 61.8718 128.876 60.2078 125.719 56.8798C122.561 53.5092 120.983 49.6052 120.983 45.1678C120.983 40.6878 122.561 36.7625 125.719 33.3918C128.919 30.0212 132.417 28.3358 136.215 28.3358C139.372 28.3358 141.825 29.4025 143.575 31.5358V18.0958C143.575 17.1145 143.596 16.3892 143.639 15.9198C143.724 15.4078 143.916 14.8532 144.215 14.2558ZM133.847 49.0078C134.956 50.1598 136.3 50.7358 137.879 50.7358C139.457 50.7358 140.759 50.1598 141.783 49.0078C142.849 47.8558 143.383 46.5972 143.383 45.2318C143.383 43.8238 142.871 42.5225 141.847 41.3278C140.865 40.1332 139.521 39.5358 137.815 39.5358C136.108 39.5358 134.743 40.1332 133.719 41.3278C132.695 42.4798 132.183 43.7598 132.183 45.1678C132.183 46.5758 132.737 47.8558 133.847 49.0078Z" fill="#FEFEFE"/>
<path d="M159.873 33.9038C159.873 32.9225 159.894 32.1972 159.937 31.7278C160.022 31.2158 160.214 30.6398 160.513 29.9998C161.11 28.8905 162.774 28.3358 165.505 28.3358C167.553 28.3358 169.003 28.6985 169.857 29.4238C170.582 30.0212 170.966 30.9385 171.009 32.1758C171.051 32.6025 171.073 33.2212 171.073 34.0318V56.4318C171.073 57.4132 171.03 58.1598 170.945 58.6718C170.902 59.1412 170.71 59.6958 170.369 60.3358C169.814 61.4452 168.171 61.9998 165.441 61.9998C162.753 61.9998 161.11 61.4238 160.513 60.2718C160.214 59.6318 160.022 59.0772 159.937 58.6078C159.894 58.1385 159.873 57.3918 159.873 56.3678V33.9038ZM170.369 22.0638C170.07 22.6612 169.515 23.0878 168.705 23.3438C167.894 23.5998 166.806 23.7278 165.441 23.7278C164.118 23.7278 163.051 23.5998 162.241 23.3438C161.43 23.0878 160.854 22.6398 160.513 21.9998C160.214 21.3598 160.022 20.8052 159.937 20.3358C159.894 19.8238 159.873 19.0772 159.873 18.0958C159.873 17.1145 159.894 16.3892 159.937 15.9198C160.022 15.4078 160.214 14.8532 160.513 14.2558C161.11 13.1038 162.774 12.5278 165.505 12.5278C168.193 12.5278 169.814 13.1038 170.369 14.2558C170.71 14.8958 170.902 15.4718 170.945 15.9838C171.03 16.4532 171.073 17.1785 171.073 18.1598C171.073 19.1412 171.03 19.8878 170.945 20.3998C170.902 20.8692 170.71 21.4238 170.369 22.0638Z" fill="#FEFEFE"/>
<path d="M194.937 28.2718C199.204 28.2718 202.745 29.9145 205.561 33.1998C208.42 36.4425 209.849 40.4105 209.849 45.1038V56.3678C209.849 57.3492 209.806 58.0958 209.721 58.6078C209.678 59.0772 209.508 59.6105 209.209 60.2078C208.612 61.3598 206.948 61.9358 204.217 61.9358C201.188 61.9358 199.438 61.1465 198.969 59.5678C198.713 58.8425 198.585 57.7545 198.585 56.3038V45.0398C198.585 43.2905 198.073 41.9252 197.049 40.9438C196.068 39.9625 194.724 39.4718 193.017 39.4718C191.353 39.4718 189.988 39.9838 188.921 41.0078C187.897 42.0318 187.385 43.3758 187.385 45.0398V56.3678C187.385 57.3492 187.342 58.0958 187.257 58.6078C187.214 59.0772 187.022 59.6105 186.681 60.2078C186.126 61.3598 184.484 61.9358 181.753 61.9358C179.065 61.9358 177.422 61.3598 176.825 60.2078C176.526 59.5678 176.334 59.0132 176.249 58.5438C176.206 58.0318 176.185 57.2852 176.185 56.3038V33.6478C176.185 32.7092 176.206 32.0052 176.249 31.5358C176.334 31.0238 176.548 30.4692 176.889 29.8718C177.486 28.8052 179.129 28.2718 181.817 28.2718C184.42 28.2718 186.02 28.7625 186.617 29.7438C187.044 30.4692 187.257 31.3438 187.257 32.3678C187.428 32.0692 187.812 31.6425 188.409 31.0878C189.006 30.5332 189.582 30.0852 190.137 29.7438C191.588 28.7625 193.188 28.2718 194.937 28.2718Z" fill="#FEFEFE"/>
<path d="M236.374 57.7758C234.752 59.9092 232.171 60.9758 228.63 60.9758C225.088 60.9758 221.76 59.3545 218.646 56.1118C215.574 52.8265 214.038 49.0078 214.038 44.6558C214.038 40.3038 215.595 36.4852 218.71 33.1998C221.824 29.9145 225.238 28.2718 228.95 28.2718C230.4 28.2718 231.723 28.5492 232.918 29.1038C234.112 29.6158 234.923 30.1065 235.35 30.5758C235.819 31.0025 236.182 31.4078 236.438 31.7918C236.566 30.5972 236.992 29.7012 237.718 29.1038C238.486 28.4638 239.702 28.1438 241.366 28.1438C243.03 28.1438 244.246 28.2718 245.014 28.5278C245.782 28.7838 246.315 29.2318 246.614 29.8718C246.955 30.4692 247.147 31.0025 247.19 31.4718C247.275 31.9412 247.318 32.6665 247.318 33.6478V60.1438C247.318 65.0505 245.611 68.9972 242.198 71.9838C238.784 75.0132 234.944 76.5278 230.678 76.5278C227.435 76.5278 224.342 75.7385 221.398 74.1598C218.454 72.5812 216.982 71.1518 216.982 69.8718C216.982 68.2078 217.622 66.7358 218.902 65.4558C219.712 64.5598 220.331 63.9412 220.758 63.5998C221.227 63.2585 221.76 63.0878 222.358 63.0878C222.955 63.0878 223.574 63.3438 224.214 63.8558C226.262 65.4345 228.48 66.2238 230.87 66.2238C232.491 66.2238 233.814 65.5838 234.838 64.3038C235.862 63.0238 236.374 61.4878 236.374 59.6958V57.7758ZM224.982 44.7198C224.982 46.0852 225.515 47.3225 226.582 48.4318C227.691 49.5412 229.014 50.0958 230.55 50.0958C232.128 50.0958 233.43 49.5412 234.454 48.4318C235.478 47.2798 235.99 46.0425 235.99 44.7198C235.99 43.3545 235.499 42.0958 234.518 40.9438C233.536 39.7492 232.214 39.1518 230.55 39.1518C228.886 39.1518 227.542 39.7278 226.518 40.8798C225.494 42.0318 224.982 43.3118 224.982 44.7198Z" fill="#FEFEFE"/>
<path d="M262.355 51.4398C263.08 52.1652 263.443 53.6585 263.443 55.9198V56.1758C263.443 57.1998 263.4 57.9678 263.315 58.4798C263.272 58.9492 263.059 59.5252 262.675 60.2078C262.035 61.4452 260.414 62.0638 257.811 62.0638C255.251 62.0638 253.544 61.6585 252.691 60.8478C251.88 60.0372 251.475 58.5012 251.475 56.2398V55.9838C251.475 55.0025 251.496 54.2558 251.539 53.7438C251.624 53.2318 251.838 52.6558 252.179 52.0158C252.819 50.7358 254.419 50.0958 256.979 50.0958C259.582 50.0958 261.374 50.5438 262.355 51.4398Z" fill="#FEFEFE"/>
<path d="M277.543 51.4398C278.268 52.1652 278.631 53.6585 278.631 55.9198V56.1758C278.631 57.1998 278.588 57.9678 278.503 58.4798C278.46 58.9492 278.247 59.5252 277.863 60.2078C277.223 61.4452 275.601 62.0638 272.999 62.0638C270.439 62.0638 268.732 61.6585 267.879 60.8478C267.068 60.0372 266.663 58.5012 266.663 56.2398V55.9838C266.663 55.0025 266.684 54.2558 266.727 53.7438C266.812 53.2318 267.025 52.6558 267.367 52.0158C268.007 50.7358 269.607 50.0958 272.167 50.0958C274.769 50.0958 276.561 50.5438 277.543 51.4398Z" fill="#FEFEFE"/>
<path d="M292.73 51.4398C293.455 52.1652 293.818 53.6585 293.818 55.9198V56.1758C293.818 57.1998 293.775 57.9678 293.69 58.4798C293.647 58.9492 293.434 59.5252 293.05 60.2078C292.41 61.4452 290.789 62.0638 288.186 62.0638C285.626 62.0638 283.919 61.6585 283.066 60.8478C282.255 60.0372 281.85 58.5012 281.85 56.2398V55.9838C281.85 55.0025 281.871 54.2558 281.914 53.7438C281.999 53.2318 282.213 52.6558 282.554 52.0158C283.194 50.7358 284.794 50.0958 287.354 50.0958C289.957 50.0958 291.749 50.5438 292.73 51.4398Z" fill="#FEFEFE"/>
<path d="M18.8881 52.5278H36.2961C37.7041 52.5278 38.7281 52.6985 39.3681 53.0398C40.0081 53.3385 40.4347 53.8292 40.6481 54.5118C40.8614 55.1945 40.9681 56.1118 40.9681 57.2638C40.9681 58.3732 40.8614 59.2692 40.6481 59.9518C40.4347 60.6345 40.0721 61.1038 39.5601 61.3598C38.7494 61.7865 37.6401 61.9998 36.2321 61.9998H13.1921C10.2054 61.9998 8.45606 61.1892 7.94406 59.5678C7.68806 58.8852 7.56006 57.7972 7.56006 56.3038V20.7198C7.56006 19.7385 7.58139 19.0132 7.62406 18.5438C7.70939 18.0318 7.92273 17.4558 8.26406 16.8158C8.86139 15.6638 10.5254 15.0878 13.2561 15.0878C16.2427 15.0878 18.0134 15.8772 18.5681 17.4558C18.7814 18.1812 18.8881 19.2905 18.8881 20.7838V52.5278Z" stroke="#FCADC3" stroke-width="10" mask="url(#path-1-outside-1_95_2211)"/>
<path d="M44.1626 45.1678C44.1626 40.0478 45.9546 35.8238 49.5386 32.4958C53.1226 29.1678 57.2186 27.5038 61.8266 27.5038C66.4346 27.5038 70.5092 29.1678 74.0506 32.4958C77.5919 35.7812 79.3626 39.9838 79.3626 45.1038C79.3626 48.6452 78.4452 51.8025 76.6106 54.5758C74.7759 57.3065 72.5359 59.3332 69.8906 60.6558C67.2879 61.9358 64.5786 62.5758 61.7626 62.5758C58.9466 62.5758 56.2159 61.8932 53.5706 60.5278C50.9252 59.1198 48.6852 57.0718 46.8506 54.3838C45.0586 51.6532 44.1626 48.5812 44.1626 45.1678ZM57.5386 49.7758C58.9039 50.7998 60.2906 51.3118 61.6986 51.3118C63.1066 51.3118 64.5146 50.7785 65.9226 49.7118C67.3306 48.6452 68.0346 47.0665 68.0346 44.9758C68.0346 42.8852 67.3732 41.3278 66.0506 40.3038C64.7279 39.2798 63.2986 38.7678 61.7626 38.7678C60.2266 38.7678 58.7972 39.3012 57.4746 40.3678C56.1519 41.4345 55.4906 43.0132 55.4906 45.1038C55.4906 47.1518 56.1732 48.7092 57.5386 49.7758Z" stroke="#FCADC3" stroke-width="10" mask="url(#path-1-outside-1_95_2211)"/>
<path d="M105.386 31.8558C105.642 29.4665 107.327 28.2718 110.442 28.2718C112.106 28.2718 113.343 28.3998 114.154 28.6558C114.964 28.9118 115.519 29.3598 115.818 29.9998C116.159 30.6398 116.351 31.2158 116.394 31.7278C116.479 32.1972 116.522 32.9225 116.522 33.9038V56.3038C116.522 57.2852 116.479 58.0318 116.394 58.5438C116.351 59.0132 116.18 59.5678 115.882 60.2078C115.284 61.3172 113.812 61.8718 111.466 61.8718C109.162 61.8718 107.604 61.5945 106.794 61.0398C106.026 60.4425 105.578 59.5892 105.45 58.4798C103.871 60.7412 101.226 61.8718 97.5136 61.8718C93.8442 61.8718 90.4309 60.1865 87.2736 56.8158C84.1162 53.4452 82.5376 49.5412 82.5376 45.1038C82.5376 40.6238 84.1162 36.7198 87.2736 33.3918C90.4736 30.0212 93.9722 28.3358 97.7696 28.3358C99.2202 28.3358 100.543 28.5918 101.738 29.1038C102.932 29.6158 103.764 30.1065 104.234 30.5758C104.703 31.0025 105.087 31.4292 105.386 31.8558ZM93.7376 45.1678C93.7376 46.5758 94.2922 47.8558 95.4016 49.0078C96.5109 50.1172 97.8549 50.6718 99.4336 50.6718C101.012 50.6718 102.314 50.0958 103.338 48.9438C104.404 47.7918 104.938 46.5332 104.938 45.1678C104.938 43.7598 104.426 42.4585 103.402 41.2638C102.42 40.0692 101.076 39.4718 99.3696 39.4718C97.7056 39.4718 96.3402 40.0692 95.2736 41.2638C94.2496 42.4585 93.7376 43.7598 93.7376 45.1678Z" stroke="#FCADC3" stroke-width="10" mask="url(#path-1-outside-1_95_2211)"/>
<path d="M144.215 14.2558C144.556 13.6158 145.132 13.1678 145.943 12.9118C146.753 12.6558 147.82 12.5278 149.143 12.5278C150.508 12.5278 151.596 12.6558 152.407 12.9118C153.217 13.1678 153.772 13.6158 154.071 14.2558C154.412 14.8958 154.604 15.4718 154.647 15.9838C154.732 16.4532 154.775 17.1785 154.775 18.1598V56.3678C154.775 57.3492 154.732 58.0958 154.647 58.6078C154.604 59.0772 154.412 59.6105 154.071 60.2078C153.431 61.3598 151.617 61.9358 148.631 61.9358C145.687 61.9358 144.044 60.8905 143.703 58.7998C141.911 60.8478 139.415 61.8718 136.215 61.8718C132.375 61.8718 128.876 60.2078 125.719 56.8798C122.561 53.5092 120.983 49.6052 120.983 45.1678C120.983 40.6878 122.561 36.7625 125.719 33.3918C128.919 30.0212 132.417 28.3358 136.215 28.3358C139.372 28.3358 141.825 29.4025 143.575 31.5358V18.0958C143.575 17.1145 143.596 16.3892 143.639 15.9198C143.724 15.4078 143.916 14.8532 144.215 14.2558ZM133.847 49.0078C134.956 50.1598 136.3 50.7358 137.879 50.7358C139.457 50.7358 140.759 50.1598 141.783 49.0078C142.849 47.8558 143.383 46.5972 143.383 45.2318C143.383 43.8238 142.871 42.5225 141.847 41.3278C140.865 40.1332 139.521 39.5358 137.815 39.5358C136.108 39.5358 134.743 40.1332 133.719 41.3278C132.695 42.4798 132.183 43.7598 132.183 45.1678C132.183 46.5758 132.737 47.8558 133.847 49.0078Z" stroke="#FCADC3" stroke-width="10" mask="url(#path-1-outside-1_95_2211)"/>
<path d="M159.873 33.9038C159.873 32.9225 159.894 32.1972 159.937 31.7278C160.022 31.2158 160.214 30.6398 160.513 29.9998C161.11 28.8905 162.774 28.3358 165.505 28.3358C167.553 28.3358 169.003 28.6985 169.857 29.4238C170.582 30.0212 170.966 30.9385 171.009 32.1758C171.051 32.6025 171.073 33.2212 171.073 34.0318V56.4318C171.073 57.4132 171.03 58.1598 170.945 58.6718C170.902 59.1412 170.71 59.6958 170.369 60.3358C169.814 61.4452 168.171 61.9998 165.441 61.9998C162.753 61.9998 161.11 61.4238 160.513 60.2718C160.214 59.6318 160.022 59.0772 159.937 58.6078C159.894 58.1385 159.873 57.3918 159.873 56.3678V33.9038ZM170.369 22.0638C170.07 22.6612 169.515 23.0878 168.705 23.3438C167.894 23.5998 166.806 23.7278 165.441 23.7278C164.118 23.7278 163.051 23.5998 162.241 23.3438C161.43 23.0878 160.854 22.6398 160.513 21.9998C160.214 21.3598 160.022 20.8052 159.937 20.3358C159.894 19.8238 159.873 19.0772 159.873 18.0958C159.873 17.1145 159.894 16.3892 159.937 15.9198C160.022 15.4078 160.214 14.8532 160.513 14.2558C161.11 13.1038 162.774 12.5278 165.505 12.5278C168.193 12.5278 169.814 13.1038 170.369 14.2558C170.71 14.8958 170.902 15.4718 170.945 15.9838C171.03 16.4532 171.073 17.1785 171.073 18.1598C171.073 19.1412 171.03 19.8878 170.945 20.3998C170.902 20.8692 170.71 21.4238 170.369 22.0638Z" stroke="#FCADC3" stroke-width="10" mask="url(#path-1-outside-1_95_2211)"/>
<path d="M194.937 28.2718C199.204 28.2718 202.745 29.9145 205.561 33.1998C208.42 36.4425 209.849 40.4105 209.849 45.1038V56.3678C209.849 57.3492 209.806 58.0958 209.721 58.6078C209.678 59.0772 209.508 59.6105 209.209 60.2078C208.612 61.3598 206.948 61.9358 204.217 61.9358C201.188 61.9358 199.438 61.1465 198.969 59.5678C198.713 58.8425 198.585 57.7545 198.585 56.3038V45.0398C198.585 43.2905 198.073 41.9252 197.049 40.9438C196.068 39.9625 194.724 39.4718 193.017 39.4718C191.353 39.4718 189.988 39.9838 188.921 41.0078C187.897 42.0318 187.385 43.3758 187.385 45.0398V56.3678C187.385 57.3492 187.342 58.0958 187.257 58.6078C187.214 59.0772 187.022 59.6105 186.681 60.2078C186.126 61.3598 184.484 61.9358 181.753 61.9358C179.065 61.9358 177.422 61.3598 176.825 60.2078C176.526 59.5678 176.334 59.0132 176.249 58.5438C176.206 58.0318 176.185 57.2852 176.185 56.3038V33.6478C176.185 32.7092 176.206 32.0052 176.249 31.5358C176.334 31.0238 176.548 30.4692 176.889 29.8718C177.486 28.8052 179.129 28.2718 181.817 28.2718C184.42 28.2718 186.02 28.7625 186.617 29.7438C187.044 30.4692 187.257 31.3438 187.257 32.3678C187.428 32.0692 187.812 31.6425 188.409 31.0878C189.006 30.5332 189.582 30.0852 190.137 29.7438C191.588 28.7625 193.188 28.2718 194.937 28.2718Z" stroke="#FCADC3" stroke-width="10" mask="url(#path-1-outside-1_95_2211)"/>
<path d="M236.374 57.7758C234.752 59.9092 232.171 60.9758 228.63 60.9758C225.088 60.9758 221.76 59.3545 218.646 56.1118C215.574 52.8265 214.038 49.0078 214.038 44.6558C214.038 40.3038 215.595 36.4852 218.71 33.1998C221.824 29.9145 225.238 28.2718 228.95 28.2718C230.4 28.2718 231.723 28.5492 232.918 29.1038C234.112 29.6158 234.923 30.1065 235.35 30.5758C235.819 31.0025 236.182 31.4078 236.438 31.7918C236.566 30.5972 236.992 29.7012 237.718 29.1038C238.486 28.4638 239.702 28.1438 241.366 28.1438C243.03 28.1438 244.246 28.2718 245.014 28.5278C245.782 28.7838 246.315 29.2318 246.614 29.8718C246.955 30.4692 247.147 31.0025 247.19 31.4718C247.275 31.9412 247.318 32.6665 247.318 33.6478V60.1438C247.318 65.0505 245.611 68.9972 242.198 71.9838C238.784 75.0132 234.944 76.5278 230.678 76.5278C227.435 76.5278 224.342 75.7385 221.398 74.1598C218.454 72.5812 216.982 71.1518 216.982 69.8718C216.982 68.2078 217.622 66.7358 218.902 65.4558C219.712 64.5598 220.331 63.9412 220.758 63.5998C221.227 63.2585 221.76 63.0878 222.358 63.0878C222.955 63.0878 223.574 63.3438 224.214 63.8558C226.262 65.4345 228.48 66.2238 230.87 66.2238C232.491 66.2238 233.814 65.5838 234.838 64.3038C235.862 63.0238 236.374 61.4878 236.374 59.6958V57.7758ZM224.982 44.7198C224.982 46.0852 225.515 47.3225 226.582 48.4318C227.691 49.5412 229.014 50.0958 230.55 50.0958C232.128 50.0958 233.43 49.5412 234.454 48.4318C235.478 47.2798 235.99 46.0425 235.99 44.7198C235.99 43.3545 235.499 42.0958 234.518 40.9438C233.536 39.7492 232.214 39.1518 230.55 39.1518C228.886 39.1518 227.542 39.7278 226.518 40.8798C225.494 42.0318 224.982 43.3118 224.982 44.7198Z" stroke="#FCADC3" stroke-width="10" mask="url(#path-1-outside-1_95_2211)"/>
<path d="M262.355 51.4398C263.08 52.1652 263.443 53.6585 263.443 55.9198V56.1758C263.443 57.1998 263.4 57.9678 263.315 58.4798C263.272 58.9492 263.059 59.5252 262.675 60.2078C262.035 61.4452 260.414 62.0638 257.811 62.0638C255.251 62.0638 253.544 61.6585 252.691 60.8478C251.88 60.0372 251.475 58.5012 251.475 56.2398V55.9838C251.475 55.0025 251.496 54.2558 251.539 53.7438C251.624 53.2318 251.838 52.6558 252.179 52.0158C252.819 50.7358 254.419 50.0958 256.979 50.0958C259.582 50.0958 261.374 50.5438 262.355 51.4398Z" stroke="#FCADC3" stroke-width="10" mask="url(#path-1-outside-1_95_2211)"/>
<path d="M277.543 51.4398C278.268 52.1652 278.631 53.6585 278.631 55.9198V56.1758C278.631 57.1998 278.588 57.9678 278.503 58.4798C278.46 58.9492 278.247 59.5252 277.863 60.2078C277.223 61.4452 275.601 62.0638 272.999 62.0638C270.439 62.0638 268.732 61.6585 267.879 60.8478C267.068 60.0372 266.663 58.5012 266.663 56.2398V55.9838C266.663 55.0025 266.684 54.2558 266.727 53.7438C266.812 53.2318 267.025 52.6558 267.367 52.0158C268.007 50.7358 269.607 50.0958 272.167 50.0958C274.769 50.0958 276.561 50.5438 277.543 51.4398Z" stroke="#FCADC3" stroke-width="10" mask="url(#path-1-outside-1_95_2211)"/>
<path d="M292.73 51.4398C293.455 52.1652 293.818 53.6585 293.818 55.9198V56.1758C293.818 57.1998 293.775 57.9678 293.69 58.4798C293.647 58.9492 293.434 59.5252 293.05 60.2078C292.41 61.4452 290.789 62.0638 288.186 62.0638C285.626 62.0638 283.919 61.6585 283.066 60.8478C282.255 60.0372 281.85 58.5012 281.85 56.2398V55.9838C281.85 55.0025 281.871 54.2558 281.914 53.7438C281.999 53.2318 282.213 52.6558 282.554 52.0158C283.194 50.7358 284.794 50.0958 287.354 50.0958C289.957 50.0958 291.749 50.5438 292.73 51.4398Z" stroke="#FCADC3" stroke-width="10" mask="url(#path-1-outside-1_95_2211)"/>
</g>
<defs>
<filter id="filter0_d_95_2211" x="2.56006" y="7.52783" width="296.258" height="84" filterUnits="userSpaceOnUse" color-interpolation-filters="sRGB">
<feFlood flood-opacity="0" result="BackgroundImageFix"/>
<feColorMatrix in="SourceAlpha" type="matrix" values="0 0 0 0 0 0 0 0 0 0 0 0 0 0 0 0 0 0 127 0" result="hardAlpha"/>
<feOffset dy="10"/>
<feComposite in2="hardAlpha" operator="out"/>
<feColorMatrix type="matrix" values="0 0 0 0 0.972549 0 0 0 0 0.509804 0 0 0 0 0.666667 0 0 0 1 0"/>
<feBlend mode="normal" in2="BackgroundImageFix" result="effect1_dropShadow_95_2211"/>
<feBlend mode="normal" in="SourceGraphic" in2="effect1_dropShadow_95_2211" result="shape"/>
</filter>
</defs>
</svg>
